<?xml version="1.0" encoding="utf-8"?>
<!-- Generator: Adobe Illustrator 16.0.0, SVG Export Plug-In . SVG Version: 6.00 Build 0)  -->
<!DOCTYPE svg PUBLIC "-//W3C//DTD SVG 1.1//EN" "http://www.w3.org/Graphics/SVG/1.1/DTD/svg11.dtd">
<svg version="1.1" id="Layer_1" xmlns="http://www.w3.org/2000/svg" xmlns:xlink="http://www.w3.org/1999/xlink" x="0px" y="0px"
	 width="60px" height="60px" viewBox="0 0 60 60" enable-background="new 0 0 60 60" xml:space="preserve">
<g>
	
		<rect x="4.645" y="6.227" fill="none" stroke="#FFFFFF" stroke-width="0.2256" stroke-miterlimit="10" width="50.08" height="50.08"/>
	<line fill="none" stroke="#FFFFFF" stroke-width="0.2256" stroke-miterlimit="10" x1="43.66" y1="6.274" x2="54.74" y2="17.355"/>
	
		<line fill="none" stroke="#FFFFFF" stroke-width="0.2256" stroke-miterlimit="10" x1="37.643" y1="6.274" x2="54.682" y2="23.103"/>
	<line fill="none" stroke="#FFFFFF" stroke-width="0.2256" stroke-miterlimit="10" x1="4.595" y1="44.58" x2="16.299" y2="56.284"/>
	
		<line fill="none" stroke="#FFFFFF" stroke-width="0.2256" stroke-miterlimit="10" x1="4.641" y1="39.303" x2="21.624" y2="56.284"/>
</g>
<g>
	<g>
		<path fill="#FFFFFF" d="M30.359,17.622c0-1.278-0.41-1.859-2.029-2.371c-0.229-0.062-0.433-0.11-0.532-0.248
			c-0.284-0.379-0.122-0.507-0.079-0.394c0.055,0.158,0.229,0.221,0.758,0.262c0.529,0.059,0.432,0.031,0.869,0.168
			c0.565,0.192,1.001,0.806,1.001,0.804c0-0.238,0.001-0.476,0.001-0.714"/>
		<path fill="#FFFFFF" d="M30.401,20.957c-0.006-1.863,0.583-2.816,2.918-3.682c0.329-0.103,0.622-0.176,0.766-0.378
			c0.407-0.55,0.176-0.734,0.114-0.571c-0.079,0.233-0.33,0.317-1.094,0.402c-0.763,0.12-0.622,0.074-1.252,0.316
			c-0.814,0.34-1.442,1.305-1.442,1.301c-0.001-0.35-0.002-0.699-0.004-1.047"/>
		<path fill="#FFFFFF" d="M30.386,17.621c-0.004-1.281,0.406-1.89,2.022-2.596c0.227-0.089,0.428-0.163,0.528-0.317
			c0.28-0.425,0.121-0.536,0.078-0.412c-0.054,0.169-0.227,0.256-0.756,0.36c-0.528,0.123-0.432,0.084-0.867,0.271
			c-0.562,0.258-0.997,0.917-0.997,0.916c-0.001-0.239-0.001-0.477-0.002-0.715"/>
		<path fill="#FFFFFF" d="M30.362,16.128c0-0.951-0.333-1.365-1.647-1.758c-0.183-0.048-0.348-0.217-0.43-0.321
			c-0.229-0.292-0.099-0.386-0.063-0.298c0.043,0.12,0.183,0.172,0.614,0.208c0.43,0.047,0.35,0.026,0.703,0.128
			c0.458,0.143,0.814,0.595,0.814,0.594c0-0.177,0.001-0.354,0-0.53"/>
		<path fill="#FFFFFF" d="M30.365,15.088c0-0.815-0.249-1.134-1.227-1.554c-0.137-0.056-0.26-0.104-0.318-0.203
			c-0.17-0.274-0.074-0.477-0.05-0.397c0.033,0.108,0.137,0.169,0.457,0.231c0.321,0.069,0.26,0.047,0.525,0.148
			c0.341,0.139,0.606,0.521,0.606,0.521c0-0.15,0-0.3,0-0.45"/>
		<path fill="#FFFFFF" d="M30.368,13.13c0-0.472-0.124-0.632-0.599-0.93c-0.068-0.041-0.126-0.079-0.156-0.141
			c-0.082-0.174-0.035-0.282-0.023-0.234c0.017,0.063,0.066,0.113,0.224,0.168c0.155,0.059,0.126,0.042,0.256,0.112
			c0.166,0.092,0.294,0.309,0.294,0.309c0-0.085,0-0.17,0-0.256"/>
		<path fill="#FFFFFF" d="M30.367,13.992c0-0.562-0.193-0.773-0.946-1.069c-0.107-0.039-0.201-0.075-0.247-0.144
			c-0.129-0.193-0.056-0.332-0.037-0.276c0.026,0.074,0.106,0.119,0.353,0.165c0.246,0.051,0.2,0.036,0.403,0.106
			c0.263,0.098,0.468,0.357,0.468,0.357c0-0.104,0-0.207,0-0.31"/>
		<path fill="#FFFFFF" d="M30.32,16.13c0.002-0.951,0.336-1.396,1.651-1.954c0.182-0.071,0.349-0.264,0.432-0.381
			c0.229-0.327,0.1-0.406,0.064-0.312c-0.044,0.128-0.186,0.2-0.616,0.29c-0.428,0.102-0.35,0.07-0.704,0.217
			c-0.457,0.2-0.814,0.692-0.814,0.691c0-0.177,0-0.354,0-0.53"/>
		<path fill="#FFFFFF" d="M30.32,15.09c0.002-0.815,0.252-1.16,1.231-1.708c0.137-0.074,0.259-0.139,0.319-0.247
			c0.171-0.301,0.075-0.494,0.051-0.409c-0.035,0.113-0.14,0.19-0.458,0.294c-0.321,0.111-0.261,0.081-0.526,0.217
			c-0.341,0.183-0.608,0.598-0.607,0.597c0-0.15,0-0.3,0-0.449"/>
		<path fill="#FFFFFF" d="M30.321,13.995c0.001-0.562,0.195-0.796,0.948-1.193c0.107-0.053,0.201-0.103,0.248-0.178
			c0.13-0.213,0.056-0.343,0.037-0.284c-0.026,0.078-0.105,0.136-0.353,0.214c-0.246,0.084-0.2,0.063-0.404,0.161
			c-0.263,0.133-0.468,0.418-0.468,0.418c0-0.104,0-0.206,0-0.31"/>
		<path fill="#FFFFFF" d="M30.343,13.131c0-0.472,0.123-0.647,0.601-1.01c0.067-0.05,0.126-0.097,0.157-0.163
			c0.083-0.187,0.036-0.289,0.023-0.239c-0.017,0.066-0.067,0.122-0.224,0.2c-0.155,0.08-0.127,0.06-0.255,0.147
			c-0.167,0.114-0.297,0.349-0.297,0.348c0-0.085,0-0.17,0-0.256"/>
		<path fill="#FFFFFF" d="M30.224,12.508c-0.007-0.138-0.027-0.297-0.055-0.487c-0.016-0.106-0.026-0.205,0-0.291
			c0.076-0.242,0.188-0.283,0.161-0.228c-0.04,0.072-0.042,0.171,0.022,0.387c0.063,0.217,0.056,0.172,0.095,0.367
			c0.012,0.063,0.018,0.13,0.021,0.195"/>
		<path fill="#FFFFFF" d="M30.356,19.057c-0.001-1.545-0.494-2.286-2.449-2.844c-0.277-0.063-0.52-0.109-0.643-0.266
			c-0.34-0.431-0.147-0.593-0.097-0.46c0.068,0.183,0.278,0.242,0.918,0.264c0.64,0.051,0.521,0.022,1.05,0.178
			c0.679,0.221,1.206,0.973,1.206,0.97c0.001-0.29,0.001-0.58,0.001-0.869"/>
		<path fill="#FFFFFF" d="M30.391,19.055c-0.004-1.546,0.487-2.314,2.436-3.095c0.275-0.095,0.518-0.169,0.639-0.347
			c0.339-0.486,0.149-0.628,0.098-0.486c-0.069,0.198-0.277,0.286-0.916,0.381c-0.637,0.122-0.521,0.079-1.045,0.293
			c-0.679,0.296-1.203,1.097-1.203,1.093c-0.001-0.29-0.003-0.579-0.004-0.868"/>
		<path fill="#FFFFFF" d="M30.604,47.611c-0.016-2.687,0.813-3.32,3.977-5.723c0.444-0.343,0.837-0.677,1.024-1.082
			c0.521-1.122,0.196-1.183,0.122-0.895c-0.095,0.377-0.424,0.775-1.459,1.345c-1.032,0.558-0.844,0.421-1.696,0.945
			c-1.102,0.667-1.962,1.864-1.962,1.866c-0.003-0.475-0.007-0.949-0.01-1.422"/>
		<path fill="#FFFFFF" d="M30.58,43.815c-0.018-2.65,0.81-3.333,3.923-5.625c0.437-0.324,0.824-0.638,1.006-1.023
			c0.508-1.075,0.188-1.146,0.119-0.87c-0.094,0.366-0.418,0.731-1.437,1.265c-1.018,0.521-0.829,0.391-1.671,0.897
			c-1.085,0.647-1.936,1.844-1.936,1.845c-0.003-0.472-0.006-0.941-0.01-1.41"/>
		<path fill="#FFFFFF" d="M30.524,36.32c-0.017-2.562,0.787-3.399,3.796-5.346c0.423-0.268,0.797-0.515,0.973-0.858
			c0.49-0.945,0.184-1.058,0.114-0.808c-0.089,0.334-0.403,0.62-1.386,1.025c-0.985,0.412-0.802,0.304-1.618,0.751
			c-1.047,0.584-1.873,1.787-1.874,1.785c-0.002-0.462-0.004-0.925-0.006-1.386"/>
		<path fill="#FFFFFF" d="M30.527,38.183c-0.017-2.589,0.793-3.376,3.828-5.426c0.427-0.286,0.803-0.552,0.979-0.907
			c0.493-0.983,0.185-1.082,0.115-0.825c-0.09,0.343-0.407,0.652-1.396,1.096c-0.993,0.443-0.809,0.328-1.632,0.794
			c-1.056,0.602-1.888,1.803-1.889,1.8c-0.002-0.464-0.005-0.928-0.007-1.392"/>
		<path fill="#FFFFFF" d="M30.53,40.051c-0.018-2.609,0.799-3.358,3.859-5.498c0.431-0.3,0.811-0.581,0.987-0.95
			c0.498-1.014,0.186-1.104,0.115-0.841c-0.09,0.352-0.408,0.682-1.407,1.157c-1.002,0.473-0.814,0.353-1.646,0.833
			c-1.064,0.619-1.904,1.816-1.905,1.816c-0.002-0.466-0.005-0.932-0.008-1.396"/>
		<path fill="#FFFFFF" d="M30.51,32.624c-0.013-2.516,0.776-3.454,3.742-5.167c0.417-0.228,0.786-0.431,0.962-0.748
			c0.488-0.865,0.188-1.008,0.119-0.775c-0.093,0.319-0.402,0.552-1.374,0.872c-0.97,0.337-0.791,0.243-1.594,0.65
			c-1.034,0.54-1.846,1.748-1.847,1.745c-0.003-0.458-0.005-0.915-0.008-1.371"/>
		<path fill="#FFFFFF" d="M30.593,45.71c-0.019-2.672,0.81-3.326,3.951-5.676c0.44-0.337,0.831-0.661,1.015-1.058
			c0.514-1.099,0.192-1.164,0.121-0.882c-0.094,0.371-0.423,0.754-1.448,1.307c-1.024,0.543-0.838,0.408-1.687,0.925
			c-1.092,0.658-1.948,1.854-1.949,1.854c-0.003-0.473-0.006-0.944-0.009-1.415"/>
		<path fill="#FFFFFF" d="M30.568,41.93c-0.019-2.631,0.805-3.344,3.891-5.566c0.435-0.312,0.817-0.61,0.998-0.988
			c0.503-1.047,0.184-1.126,0.114-0.855c-0.09,0.357-0.411,0.706-1.419,1.213c-1.011,0.5-0.823,0.374-1.659,0.868
			c-1.074,0.636-1.92,1.831-1.921,1.831c-0.003-0.469-0.007-0.936-0.01-1.402"/>
		<path fill="#FFFFFF" d="M30.504,34.468c-0.015-2.538,0.781-3.424,3.768-5.261c0.42-0.249,0.791-0.476,0.967-0.805
			c0.489-0.909,0.184-1.035,0.115-0.794c-0.091,0.328-0.401,0.587-1.379,0.954c-0.977,0.376-0.796,0.273-1.604,0.704
			c-1.039,0.561-1.857,2.34-1.858,2.338c-0.003-0.462-0.006-0.922-0.009-1.382"/>
		<path fill="#FFFFFF" d="M30.492,30.788c-0.014-2.49,0.768-3.486,3.721-5.068c0.414-0.207,0.782-0.387,0.96-0.687
			c0.489-0.822,0.19-0.983,0.12-0.757c-0.093,0.31-0.404,0.513-1.369,0.785c-0.967,0.295-0.788,0.208-1.586,0.594
			c-1.03,0.516-1.837,1.727-1.838,1.724c-0.002-0.456-0.004-0.912-0.006-1.366"/>
		<path fill="#FFFFFF" d="M30.482,29.335c-0.013-2.722,0.76-3.874,3.7-5.503c0.415-0.208,0.78-0.386,0.958-0.701
			c0.494-0.863,0.197-1.056,0.125-0.815c-0.094,0.332-0.404,0.527-1.368,0.784c-0.964,0.289-0.784,0.201-1.58,0.606
			c-1.024,0.548-1.827,1.889-1.827,1.884c-0.003-0.501-0.005-1.002-0.007-1.501"/>
		<path fill="#FFFFFF" d="M30.46,23.439c-0.006-2.327,0.707-3.532,3.517-4.548c0.396-0.117,0.747-0.195,0.924-0.432
			c0.488-0.64,0.21-0.871,0.134-0.681c-0.096,0.274-0.398,0.357-1.318,0.433c-0.921,0.124-0.749,0.071-1.509,0.357
			c-0.979,0.407-1.736,1.606-1.736,1.599c-0.001-0.437-0.003-0.874-0.004-1.31"/>
		<path fill="#FFFFFF" d="M30.459,25.327c-0.007-2.402,0.75-3.6,3.697-4.728c0.413-0.133,0.784-0.228,0.966-0.477
			c0.506-0.677,0.213-0.899,0.137-0.701c-0.102,0.281-0.414,0.383-1.382,0.49c-0.964,0.152-0.785,0.093-1.582,0.401
			c-1.027,0.432-1.823,1.659-1.824,1.653c-0.002-0.45-0.004-0.899-0.006-1.348"/>
		<path fill="#FFFFFF" d="M30.459,27.139c-0.009-2.433,0.756-3.559,3.697-4.85c0.412-0.16,0.781-0.287,0.96-0.552
			c0.5-0.729,0.205-0.928,0.132-0.719c-0.099,0.289-0.409,0.429-1.375,0.594c-0.962,0.204-0.783,0.134-1.579,0.471
			c-1.025,0.462-1.823,1.684-1.824,1.678c-0.002-0.453-0.004-0.904-0.007-1.355"/>
		<path fill="#FFFFFF" d="M30.312,20.959c0.007-1.859-0.579-2.794-2.918-3.429c-0.328-0.07-0.623-0.111-0.767-0.292
			c-0.406-0.487-0.173-0.688-0.112-0.538c0.08,0.214,0.331,0.268,1.098,0.275c0.764,0.045,0.622,0.014,1.255,0.195
			c0.812,0.264,1.439,1.181,1.439,1.177c0.002-0.35,0.003-0.698,0.005-1.047"/>
		<path fill="#FFFFFF" d="M30.13,47.581c0.007-2.681-0.821-3.431-3.997-6.14c-0.447-0.385-0.841-0.754-1.03-1.169
			c-0.526-1.147-0.2-1.169-0.127-0.884c0.098,0.377,0.431,0.799,1.467,1.469c1.037,0.655,0.847,0.501,1.703,1.11
			c1.104,0.776,1.966,2.07,1.967,2.072c0.003-0.475,0.005-0.948,0.008-1.42"/>
		<path fill="#FFFFFF" d="M30.143,43.791c0.011-2.643-0.814-3.432-3.942-5.958c-0.439-0.357-0.829-0.696-1.013-1.087
			c-0.512-1.085-0.19-1.124-0.121-0.852c0.093,0.361,0.421,0.742,1.445,1.352c1.021,0.599,0.832,0.453,1.678,1.026
			c1.086,0.731,1.94,2.008,1.94,2.01c0.002-0.471,0.004-0.94,0.006-1.408"/>
		<path fill="#FFFFFF" d="M30.184,36.308c0.012-2.554-0.787-3.465-3.812-5.483c-0.426-0.276-0.802-0.529-0.981-0.865
			c-0.496-0.922-0.184-1.019-0.116-0.779c0.091,0.323,0.408,0.606,1.398,1.034c0.991,0.436,0.807,0.324,1.624,0.793
			c1.052,0.611,1.878,1.854,1.879,1.852c0.002-0.461,0.004-0.922,0.007-1.383"/>
		<path fill="#FFFFFF" d="M30.184,38.169c0.012-2.581-0.795-3.451-3.845-5.616c-0.429-0.301-0.808-0.577-0.989-0.929
			c-0.498-0.968-0.184-1.047-0.115-0.798c0.092,0.333,0.411,0.644,1.408,1.124c0.999,0.481,0.813,0.359,1.637,0.858
			c1.061,0.645,1.895,1.896,1.895,1.895c0.002-0.463,0.005-0.927,0.007-1.39"/>
		<path fill="#FFFFFF" d="M30.185,40.034c0.011-2.601-0.802-3.441-3.878-5.737c-0.432-0.321-0.814-0.619-0.996-0.986
			c-0.502-1.008-0.186-1.073-0.117-0.816c0.092,0.344,0.414,0.68,1.419,1.205c1.007,0.524,0.82,0.395,1.65,0.921
			c1.07,0.676,1.91,1.936,1.911,1.935c0.002-0.466,0.004-0.93,0.007-1.395"/>
		<path fill="#FFFFFF" d="M30.193,32.616c0.012-2.507-0.77-3.5-3.755-5.193c-0.419-0.224-0.792-0.422-0.969-0.725
			c-0.494-0.825-0.189-0.96-0.12-0.74c0.092,0.305,0.407,0.524,1.386,0.837c0.975,0.331,0.796,0.238,1.601,0.644
			c1.039,0.537,1.849,1.76,1.85,1.758c0.003-0.458,0.006-0.914,0.009-1.37"/>
		<path fill="#FFFFFF" d="M30.135,45.683c0.011-2.664-0.816-3.432-3.969-6.053c-0.444-0.374-0.837-0.729-1.022-1.131
			c-0.519-1.118-0.195-1.147-0.124-0.868c0.095,0.368,0.427,0.771,1.457,1.412c1.031,0.631,0.84,0.479,1.691,1.071
			c1.096,0.756,1.955,2.04,1.955,2.042c0.002-0.473,0.005-0.943,0.007-1.413"/>
		<path fill="#FFFFFF" d="M30.15,41.908c0.012-2.623-0.809-3.436-3.91-5.854c-0.438-0.339-0.822-0.66-1.005-1.038
			c-0.508-1.05-0.188-1.1-0.119-0.836c0.093,0.353,0.416,0.714,1.431,1.282c1.015,0.564,0.828,0.427,1.665,0.978
			c1.078,0.705,1.926,1.973,1.926,1.973c0.002-0.468,0.005-0.935,0.008-1.4"/>
		<path fill="#FFFFFF" d="M30.202,34.459c0.012-2.531-0.778-3.48-3.782-5.344c-0.422-0.252-0.797-0.479-0.975-0.797
			c-0.493-0.878-0.187-0.991-0.116-0.761c0.09,0.315,0.406,0.566,1.39,0.94c0.982,0.385,0.803,0.281,1.612,0.723
			c1.043,0.572,1.861,2.378,1.862,2.378c0.003-0.461,0.005-0.921,0.008-1.38"/>
		<path fill="#FFFFFF" d="M30.213,30.783c0.01-2.482-0.763-3.521-3.733-5.038c-0.419-0.196-0.79-0.365-0.966-0.648
			c-0.496-0.773-0.193-0.931-0.123-0.719c0.092,0.293,0.407,0.478,1.38,0.728c0.974,0.273,0.793,0.192,1.595,0.563
			c1.032,0.496,1.838,1.71,1.839,1.708c0.002-0.456,0.004-0.911,0.006-1.364"/>
		<path fill="#FFFFFF" d="M30.223,29.332c0.01-2.713-0.754-3.901-3.713-5.407c-0.417-0.19-0.785-0.348-0.965-0.641
			c-0.495-0.8-0.195-0.994-0.123-0.771c0.094,0.312,0.406,0.482,1.378,0.695c0.967,0.251,0.789,0.169,1.587,0.545
			c1.028,0.509,1.83,1.84,1.83,1.837c0.003-0.501,0.005-1.001,0.008-1.5"/>
		<path fill="#FFFFFF" d="M30.249,23.442c0.007-2.32-0.698-3.521-3.519-4.291c-0.398-0.081-0.751-0.125-0.928-0.334
			c-0.486-0.564-0.206-0.81-0.132-0.636c0.095,0.251,0.398,0.299,1.324,0.292c0.924,0.043,0.752,0.005,1.513,0.229
			c0.98,0.325,1.734,1.478,1.735,1.472c0.002-0.437,0.005-0.873,0.008-1.309"/>
		<path fill="#FFFFFF" d="M30.248,25.328c0.007-2.396-0.741-3.601-3.704-4.519c-0.417-0.101-0.788-0.167-0.969-0.391
			c-0.51-0.602-0.212-0.834-0.136-0.655c0.097,0.26,0.415,0.328,1.388,0.364c0.97,0.084,0.79,0.038,1.589,0.292
			c1.028,0.363,1.824,1.555,1.825,1.549c0.002-0.45,0.005-0.898,0.007-1.347"/>
		<path fill="#FFFFFF" d="M30.247,27.138c0.007-2.426-0.748-3.572-3.707-4.702c-0.417-0.135-0.787-0.239-0.966-0.481
			c-0.502-0.663-0.204-0.868-0.13-0.677c0.095,0.271,0.411,0.381,1.381,0.492c0.969,0.151,0.789,0.092,1.587,0.389
			c1.027,0.41,1.825,1.609,1.825,1.604c0.002-0.452,0.005-0.902,0.008-1.354"/>
		<path fill="#FFFFFF" d="M29.797,49.019c0.29-0.308,0.58-0.621,0.869-0.941c-0.087-12.436-0.17-24.355-0.195-35.75
			c-0.083,0.018-0.167,0.037-0.25,0.058C30.096,24.076,29.922,36.272,29.797,49.019z"/>
	</g>
</g>
</svg>
