<?xml version="1.0" encoding="utf-8"?>
<!-- Generator: Adobe Illustrator 16.0.0, SVG Export Plug-In . SVG Version: 6.00 Build 0)  -->
<!DOCTYPE svg PUBLIC "-//W3C//DTD SVG 1.1//EN" "http://www.w3.org/Graphics/SVG/1.1/DTD/svg11.dtd">
<svg version="1.1" id="Layer_1" xmlns="http://www.w3.org/2000/svg" xmlns:xlink="http://www.w3.org/1999/xlink" x="0px" y="0px"
	 width="60px" height="60px" viewBox="0 0 60 60" enable-background="new 0 0 60 60" xml:space="preserve">
<g>
	<path fill="#BCBEC0" d="M44.904,47.408c0.003,0,0.009,0,0.01,0C44.999,47.362,44.505,46.412,44.904,47.408z"/>
	<path opacity="0.5" fill="#FFFFFF" d="M50.333,60.116l-4.414-14.38C42.947-4.312,1.569,0.117,1.569,0.117
		C2.89,2.143,2.825,4.048,2.815,5.409c-0.001,0.218-0.903,8.181,3.682,15.414c6.293,9.926,20.374,7.832,22.6,7.098
		c1.457-0.481,2.046-0.898,2.28-1.131c0.05-0.066,0.101-0.128,0.15-0.195c0,0-0.026,0.071-0.15,0.195
		c-2.335,3.066-5.201,4.728-8.317,4.728c-5.069,0-8.834-2.564-9.243-2.676c5.657,15.183,30.647,18.589,31.087,18.566
		c-0.399-0.996,0.095-0.046,0.01,0c-0.001,0-0.007,0-0.01,0c0.203,0.504,0.634,1.506,1.486,3.382
		c2.538,5.577,1.794,9.005,1.812,8.995C48.223,59.775,50.333,60.116,50.333,60.116z M17.252,31.972
		c10.622,4.114,15.791-5.029,15.791-5.029c3.475,3.28,10.747,18.559,10.747,18.559C24.38,42.326,17.252,31.972,17.252,31.972z
		 M26.808,16.632c-6.586-5.889-15.74-11.03-17.146-10.281c0,0,3.217,1.954,6.497,3.886s15.779,10.358,15.1,15.358
		c-7.027,2.598-15.578,2.235-21.625-3.709c0,0-8.168-7.556-5.359-20.24c0,0,32.606-4.007,40.781,42.704
		C45.056,44.35,34.813,23.791,26.808,16.632z"/>
	<path fill="#BCBEC0" d="M31.528,26.595c-0.05,0.066-0.101,0.129-0.15,0.195C31.502,26.666,31.528,26.595,31.528,26.595z"/>
</g>
</svg>
